<svg width="24" height="24" viewBox="0 0 24 24" fill="none" xmlns="http://www.w3.org/2000/svg">
<path d="M18.1111 23H12C9.82441 23 7.69767 22.3549 5.88873 21.1462C4.07979 19.9375 2.66989 18.2195 1.83733 16.2095C1.00477 14.1995 0.78693 11.9878 1.21137 9.85401C1.6358 7.72022 2.68345 5.76021 4.22183 4.22183C5.76021 2.68345 7.72022 1.6358 9.85401 1.21137C11.9878 0.78693 14.1995 1.00477 16.2095 1.83733C18.2195 2.66989 19.9375 4.07979 21.1462 5.88873C22.3549 7.69767 23 9.82441 23 12V13.8333C23 14.6437 22.6781 15.4209 22.105 15.9939C21.532 16.567 20.7548 16.8889 19.9444 16.8889C19.1341 16.8889 18.3569 16.567 17.7838 15.9939C17.2108 15.4209 16.8889 14.6437 16.8889 13.8333V12C16.8889 10.7034 16.3738 9.45988 15.457 8.54304C14.5401 7.62619 13.2966 7.11112 12 7.11112V7.11112C11.0331 7.11112 10.0879 7.39784 9.28388 7.93504C8.47991 8.47224 7.85329 9.23578 7.48326 10.1291C7.11323 11.0224 7.01641 12.0054 7.20505 12.9538C7.39369 13.9021 7.85931 14.7732 8.54304 15.457C9.22676 16.1407 10.0979 16.6063 11.0462 16.795C11.9946 16.9836 12.9776 16.8868 13.8709 16.5167C14.7642 16.1467 15.5278 15.5201 16.065 14.7161C16.6022 13.9121 16.8889 12.9669 16.8889 12" stroke="#819299" stroke-linecap="round" stroke-linejoin="round"/>
</svg>
