<svg width="24" height="24" viewBox="0 0 24 24" fill="none" xmlns="http://www.w3.org/2000/svg">
<path fill-rule="evenodd" clip-rule="evenodd" d="M6.49511 1H17.5061C20.5397 1 23 3.45911 23 6.49511V17.5061C23 20.5397 20.5409 23 17.5049 23H6.49511C3.46033 23 1 20.5409 1 17.5049V6.49511C1 3.46033 3.45911 1 6.49511 1Z" stroke="#819299" stroke-linecap="round" stroke-linejoin="round"/>
<path d="M18.0488 5.53811C17.8214 5.53933 17.6369 5.72389 17.6369 5.95122C17.6369 6.17856 17.8227 6.36311 18.05 6.36311C18.2773 6.36311 18.4619 6.17856 18.4619 5.95122C18.4631 5.72267 18.2773 5.53811 18.0488 5.53811Z" stroke="#819299" stroke-linecap="round" stroke-linejoin="round"/>
<path fill-rule="evenodd" clip-rule="evenodd" d="M15.1113 8.88874C16.8296 10.607 16.8296 13.393 15.1113 15.1113C13.393 16.8296 10.6071 16.8296 8.88875 15.1113C7.17044 13.393 7.17044 10.607 8.88875 8.88874C10.6071 7.17043 13.393 7.17043 15.1113 8.88874Z" stroke="#819299" stroke-linecap="round" stroke-linejoin="round"/>
</svg>
