<svg width="24" height="24" viewBox="0 0 24 24" fill="none" xmlns="http://www.w3.org/2000/svg">
<path d="M9.3447 14.6413C11.8134 17.1006 14.9405 18.6668 16.8012 16.8229L17.2522 16.3739C17.854 15.7759 17.7698 14.7852 17.0713 14.3023C16.6315 13.9971 16.1592 13.6694 15.6365 13.3041C15.0963 12.9263 14.355 12.9851 13.8864 13.4479L13.3763 13.9521C12.7444 13.553 12.1187 13.0414 11.5383 12.4635L11.5358 12.461C10.9553 11.883 10.4415 11.2601 10.0407 10.6309L10.547 10.123C11.0131 9.65639 11.0709 8.91835 10.6915 8.38045C10.3234 7.86007 9.99423 7.38972 9.68894 6.9519C9.20399 6.25763 8.20895 6.17382 7.60842 6.77176L7.15739 7.22084C5.30552 9.07346 6.87848 12.1858 9.34721 14.6451M19.795 4.19736C17.7271 2.13709 14.9769 1.00125 12.0471 1C6.00782 1 1.09423 5.88986 1.09297 11.9006C1.09046 13.8132 1.59426 15.6934 2.55411 17.3508L1 23L6.80686 21.4839C8.41374 22.3545 10.2128 22.8111 12.0421 22.8111H12.0471C18.0839 22.8111 22.9975 17.92 23 11.9093C23.0013 8.99716 21.863 6.25888 19.795 4.19736Z" stroke="#819299" stroke-linecap="round" stroke-linejoin="round"/>
</svg>
