<svg width="26" height="24" viewBox="0 0 26 24" fill="none" xmlns="http://www.w3.org/2000/svg">
<path d="M11.4004 23L13 21.3708M13 21.3708L11.4004 19.7416M13 21.3708C6.3724 21.3708 1 19.2429 1 16.6176C1 15.8353 1.4896 15.102 2.3332 14.4518M23.6668 14.4518C24.5104 15.102 25 15.8353 25 16.6176C25 18.6171 21.88 20.3246 17.4664 21.0273M10.12 1V3.64C10.12 4.12522 10.4428 4.52 10.84 4.52H15.16C15.5572 4.52 15.88 4.12522 15.88 3.64V1M5.8 15.6667V3.93333C5.8 2.31267 7.0888 1 8.68 1H17.32C18.9112 1 20.2 2.31267 20.2 3.93333V15.6667" stroke="#819299" stroke-linecap="round" stroke-linejoin="round"/>
</svg>
