<svg width="40" height="40" viewBox="0 0 40 40" fill="none" xmlns="http://www.w3.org/2000/svg">
<path d="M20.0003 37.3333C29.5733 37.3333 37.3337 29.5729 37.3337 20C37.3337 10.4271 29.5733 2.66667 20.0003 2.66667C10.4274 2.66667 2.66699 10.4271 2.66699 20C2.66699 29.5729 10.4274 37.3333 20.0003 37.3333Z" stroke="#162F71"/>
<path d="M5.33334 17.3333H0V22.6667H5.33334V17.3333Z" fill="#162F71"/>
<path d="M40.0003 17.3333H34.667V22.6667H40.0003V17.3333Z" fill="#162F71"/>
<path d="M14.415 24.8669C17.2301 24.8669 18.9759 23.0371 18.9759 19.9952C18.9759 16.9582 17.2301 15.1331 14.4105 15.1331H11V24.8669H14.415ZM13.2331 22.8612V17.1388H14.2977C15.8857 17.1388 16.7383 17.8992 16.7383 19.9952C16.7383 22.1008 15.8857 22.8612 14.3293 22.8612H13.2331Z" fill="#162F71"/>
<path d="M29.0002 20C29.0002 16.7823 27.0694 15 24.5882 15C22.0979 15 20.1807 16.7823 20.1807 20C20.1807 23.2034 22.0979 25 24.5882 25C27.0694 25 29.0002 23.2177 29.0002 20ZM26.7175 20C26.7175 21.9059 25.9235 22.9373 24.5882 22.9373C23.2573 22.9373 22.4588 21.9059 22.4588 20C22.4588 18.0941 23.2573 17.0627 24.5882 17.0627C25.9235 17.0627 26.7175 18.0941 26.7175 20Z" fill="#162F71"/>
</svg>
